Coordinates
version=1
nRows=16
nColumns=40
inDegrees=yes

Units are S.I. units (second, meters, Newtons, ...)
Angles are in degrees.

endheader
time	pelvis_tilt	pelvis_list	pelvis_rotation	pelvis_tx	pelvis_ty	pelvis_tz	hip_flexion_r	hip_adduction_r	hip_rotation_r	knee_angle_r	knee_angle_r_beta	ankle_angle_r	subtalar_angle_r	mtp_angle_r	hip_flexion_l	hip_adduction_l	hip_rotation_l	knee_angle_l	knee_angle_l_beta	ankle_angle_l	subtalar_angle_l	mtp_angle_l	lumbar_extension	lumbar_bending	lumbar_rotation	arm_flex_r	arm_add_r	arm_rot_r	elbow_flex_r	pro_sup_r	wrist_flex_r	wrist_dev_r	arm_flex_l	arm_add_l	arm_rot_l	elbow_flex_l	pro_sup_l	wrist_flex_l	wrist_dev_l
     37.31000000	     -7.42041080	     -6.69490688	      0.14952443	      1.06181728	      0.93186767	      0.40019947	     36.99927425	     -5.12772542	     -8.03217638	     60.62023151	     60.62023151	      4.97515308	    -18.27325391	      7.27075721	     16.06981850	     -5.75651320	     -3.20145940	     21.95237981	     21.95237981	     15.66551346	     -6.81325586	      1.58799971	    -12.03643131	      5.92607773	      1.84837839	      6.51014024	    -14.61180266	      0.97474906	     29.31091653	     46.36121820	      0.00000000	      0.00000000	      4.24116693	    -12.89988433	    -15.28948766	     62.77350032	     46.68479025	      0.00000000	      0.00000000
     37.32192857	     -7.49593411	     -6.80309833	     -0.14294182	      1.06054612	      0.93222764	      0.40028943	     37.79277530	     -4.84702003	     -7.99929985	     58.05937988	     58.05937988	      4.98102030	    -17.81470180	      6.92012316	     15.38187445	     -5.92176662	     -3.52701974	     21.44289594	     21.44289594	     15.88540026	     -6.62794394	      1.56236260	    -12.08793832	      6.12637099	      1.99966051	      5.04753039	    -15.23618122	      0.89578097	     28.25111656	     46.39697580	      0.00000000	      0.00000000	      4.77043406	    -13.06096969	    -15.52723690	     64.05112918	     46.73566833	      0.00000000	      0.00000000
     37.33385714	     -7.53974579	     -6.86792424	     -0.43050633	      1.05937776	      0.93246992	      0.40039428	     38.26125190	     -4.64922437	     -8.10130565	     55.03225067	     55.03225067	      3.95695597	    -17.49483267	      3.47838511	     14.68694037	     -6.07277158	     -4.02820813	     20.99020549	     20.99020549	     16.03413008	     -6.19701035	      1.13526155	    -12.21213692	      6.22006905	      1.68761416	      4.22647588	    -15.52386087	      0.13537565	     26.28741131	     46.52296103	      0.00000000	      0.00000000	      4.28495837	    -13.55215657	    -15.88535567	     67.25988854	     46.86996852	      0.00000000	      0.00000000
     37.34578571	     -7.62503904	     -6.93861825	     -0.69611937	      1.05825072	      0.93271610	      0.40050805	     38.68988610	     -4.36425502	     -8.13247830	     51.95198922	     51.95198922	      3.95654847	    -16.69203963	      3.47939811	     13.97059463	     -6.16450082	     -4.28976367	     20.38798838	     20.38798838	     16.18566340	     -6.07180197	      1.14971571	    -12.22196808	      6.40096190	      1.73888108	      2.83086354	    -16.09748339	      0.02489418	     25.45957249	     46.55402841	      0.00000000	      0.00000000	      4.82655824	    -13.75408329	    -16.19508022	     68.17032952	     46.91692360	      0.00000000	      0.00000000
     37.35771429	     -7.56845156	     -6.87217969	     -1.02331567	      1.05729046	      0.93301852	      0.40073908	     38.81272994	     -4.16078937	     -8.08177936	     48.66895209	     48.66895209	      3.76796452	    -15.67693380	      2.92501007	     13.07990255	     -6.14269337	     -4.76500488	     19.79811652	     19.79811652	     16.33505994	     -5.79501476	      0.98957188	    -12.44490038	      6.34479357	      2.12972537	      1.37299421	    -16.62023395	     -0.24867426	     24.37855613	     46.60998727	      0.00000000	      0.00000000	      5.37007049	    -13.81715779	    -16.53201316	     70.11051756	     46.99061171	      0.00000000	      0.00000000
     37.36964286	     -7.58620125	     -6.76804550	     -1.29597771	      1.05637853	      0.93310027	      0.40100962	     38.84657678	     -4.04033190	     -8.18559965	     45.18937989	     45.18937989	      3.45190361	    -14.41491310	      2.02999675	     12.29199953	     -6.07267111	     -5.20304310	     19.21742067	     19.21742067	     16.42737764	     -5.44549214	      0.69544079	    -12.58620398	      6.28347349	      2.16557907	      0.18508195	    -16.97936153	     -0.75509214	     23.48744903	     46.68188804	      0.00000000	      0.00000000	      5.44375523	    -14.07483933	    -16.85770734	     72.31205798	     47.07529146	      0.00000000	      0.00000000
     37.38157143	     -7.63190237	     -6.70514292	     -1.55595370	      1.05561571	      0.93302048	      0.40147624	     38.70969082	     -3.82456889	     -8.36328891	     41.44497318	     41.44497318	      2.72188864	    -13.23265554	      0.41127715	     11.56072835	     -6.04709128	     -5.57285890	     18.68348327	     18.68348327	     16.40875633	     -5.27610334	      0.08763583	    -12.59699450	      6.19735127	      1.67473570	     -0.62020187	    -17.18534817	     -2.02131185	     22.80136323	     46.81746050	      0.00000000	      0.00000000	      5.08133490	    -14.46332112	    -17.43351436	     74.73223346	     47.22009115	      0.00000000	      0.00000000
     37.39350000	     -7.71365995	     -6.57597464	     -1.80314605	      1.05492693	      0.93285024	      0.40207180	     38.53837604	     -3.63985670	     -8.54519775	     37.73822708	     37.73822708	      2.58955780	    -11.55275777	      0.79241316	     10.85646678	     -5.94134253	     -5.88725668	     18.13948107	     18.13948107	     16.53883272	     -5.05239932	      0.05075291	    -12.53063073	      6.07703846	      1.67377768	     -1.84461650	    -17.50337618	     -2.16384674	     22.29783033	     46.83997394	      0.00000000	      0.00000000	      5.54247576	    -14.70631550	    -17.67616362	     75.65792974	     47.26347471	      0.00000000	      0.00000000
     37.40542857	     -7.59670278	     -6.28124790	     -2.04393972	      1.05453740	      0.93268758	      0.40272491	     38.10422729	     -3.66312453	     -8.86536056	     34.15891457	     34.15891457	      2.57374654	     -9.30662334	      1.05164833	      9.88459028	     -5.66432419	     -6.37802220	     17.53908813	     17.53908813	     16.70630230	     -4.63539253	     -0.18466067	    -12.69850792	      5.71516725	      1.83793016	     -3.18793957	    -17.76289504	     -2.51404842	     22.11906870	     46.86420222	      0.00000000	      0.00000000	      5.91204315	    -14.82158003	    -17.88809896	     77.58034706	     47.33042783	      0.00000000	      0.00000000
     37.41735714	     -7.58722275	     -6.09054111	     -2.20746033	      1.05420064	      0.93231333	      0.40359500	     37.60986408	     -3.51093750	     -9.22185244	     30.47872302	     30.47872302	      2.36978203	     -7.32753872	      1.66451907	      9.10123204	     -5.50780358	     -6.68968036	     17.05264070	     17.05264070	     16.86222567	     -4.29303926	     -0.39545455	    -12.68878250	      5.47628625	      1.72275353	     -4.37100212	    -17.99303969	     -2.76930107	     22.07130557	     46.87501437	      0.00000000	      0.00000000	      6.16082584	    -15.02988049	    -18.05187371	     78.99752333	     47.37879471	      0.00000000	      0.00000000
     37.42928571	     -7.51303340	     -5.79147979	     -2.37618315	      1.05402079	      0.93182757	      0.40462079	     37.01712583	     -3.46433288	     -9.70075091	     27.02521044	     27.02521044	      2.23737219	     -5.11847977	      2.44325274	      8.23218195	     -5.25019229	     -7.12603289	     16.55230052	     16.55230052	     17.00391929	     -3.81832176	     -0.71962600	    -12.75200367	      5.07563467	      1.69467564	     -5.61928269	    -18.10287606	     -3.08862024	     22.33144696	     46.87471268	      0.00000000	      0.00000000	      6.39934144	    -15.25228460	    -18.23055997	     80.83843854	     47.43834459	      0.00000000	      0.00000000
     37.44121429	     -7.38137101	     -5.47795624	     -2.48013115	      1.05403975	      0.93118604	      0.40576827	     36.35619499	     -3.45849037	    -10.32394469	     23.92009455	     23.92009455	      2.14327594	     -2.88881822	      3.58261451	      7.31811112	     -4.99106650	     -7.58812790	     16.09450453	     16.09450453	     17.16117873	     -3.22622256	     -1.22026579	    -12.82811282	      4.64652613	      1.61051974	     -6.95308783	    -18.17248449	     -3.51582683	     23.03280998	     46.85940525	      0.00000000	      0.00000000	      6.53883359	    -15.46613822	    -18.38962753	     82.97064553	     47.50635072	      0.00000000	      0.00000000
     37.45314286	     -7.49493772	     -4.94948271	     -2.51286124	      1.05389651	      0.92985980	      0.40705885	     36.12632185	     -3.57702598	    -10.48325575	     21.39145104	     21.39145104	      1.81161266	     -1.79158571	      4.40319493	      6.86758092	     -4.50626075	     -7.81297684	     15.95543140	     15.95543140	     17.38542041	     -2.94964683	     -1.49849940	    -12.52737057	      3.94839587	      1.29799056	     -7.94160712	    -18.09038560	     -3.62432520	     23.05739410	     46.85439239	      0.00000000	      0.00000000	      6.99415346	    -15.89442495	    -18.58342782	     83.83568387	     47.54271279	      0.00000000	      0.00000000
     37.46507143	     -7.17737255	     -4.85752957	     -2.53192698	      1.05442657	      0.92933712	      0.40859585	     35.11970851	     -3.41011186	    -11.65492524	     18.95604874	     18.95604874	      1.95720472	      0.53495463	      6.20858055	      5.63828873	     -4.52829831	     -8.43217914	     15.35347417	     15.35347417	     17.55423494	     -1.91577306	     -2.24194469	    -12.78452156	      3.71650249	      1.40707094	     -9.43580610	    -18.09759291	     -4.12208401	     24.46806562	     46.80544062	      0.00000000	      0.00000000	      7.06188275	    -15.85439310	    -18.58386464	     86.59408637	     47.61448110	      0.00000000	      0.00000000
     37.47700000	     -7.11938784	     -4.60620119	     -2.46890377	      1.05480348	      0.92819899	      0.41018269	     34.52911200	     -3.33564755	    -12.26762152	     17.10526753	     17.10526753	      1.82088710	      1.59933331	      7.53090319	      4.87586298	     -4.37292630	     -8.72266221	     15.04336465	     15.04336465	     17.77903268	     -1.28287931	     -2.74710668	    -12.67018401	      3.33428384	      1.23399249	    -10.60458155	    -18.01750490	     -4.37689179	     25.25716592	     46.77064797	      0.00000000	      0.00000000	      7.35874931	    -15.93935524	    -18.61518814	     88.10460613	     47.65834763	      0.00000000	      0.00000000
     37.48892857	     -6.92833090	     -4.33680691	     -2.36993336	      1.05545956	      0.92702320	      0.41184136	     33.96243380	     -3.39373334	    -13.06933068	     16.10934841	     16.10934841	      2.20235768	      2.67672680	      9.34556619	      3.93456207	     -4.24260079	     -9.30772574	     14.70315083	     14.70315083	     17.99350091	     -0.15941126	     -3.61898025	    -12.72074471	      2.89513312	      1.17886005	    -12.19302349	    -17.93740242	     -4.84003622	     27.18017437	     46.68881349	      0.00000000	      0.00000000	      7.54015776	    -16.02659555	    -18.55264681	     90.40048310	     47.72583028	      0.00000000	      0.00000000
